<svg xmlns="http://www.w3.org/2000/svg" viewBox="0 0 64 64"><title>distance</title><g id="distance"><path d="M58,11a5,5,0,1,0-5,5A5.006,5.006,0,0,0,58,11Zm-8,0a3,3,0,1,1,3,3A3,3,0,0,1,50,11Z" id="id_101" style="fill: rgb(33, 194, 57);"></path><path d="M13,46H11v6a1,1,0,0,0,1,1h4V51H13Z" id="id_102" style="fill: rgb(37, 199, 62);"></path><path d="M52.313,23.726a1,1,0,0,0,1.375,0C54.539,22.919,62,15.712,62,11a9,9,0,0,0-18,0C44,15.712,51.461,22.919,52.313,23.726ZM53,4a7.008,7.008,0,0,1,7,7c0,2.96-4.553,8.144-7,10.6-2.447-2.457-7-7.639-7-10.6A7.008,7.008,0,0,1,53,4Z" id="id_103" style="fill: rgb(34, 199, 58);"></path><path d="M47,30H15a2,2,0,0,1,0-4H44V24H15a4,4,0,0,0,0,8H47a12,12,0,0,1,0,24H24v2H47a14,14,0,0,0,0-28Z" id="id_104" style="fill: rgb(36, 199, 60);"></path><path d="M15,40H47a4,4,0,0,1,0,8H24v2H47a6,6,0,0,0,0-12H15a10,10,0,0,1,0-20H44V16H15a12,12,0,0,0,0,24Z" id="id_105" style="fill: rgb(34, 199, 58);"></path><path d="M12,42A10,10,0,1,0,22,52,10.011,10.011,0,0,0,12,42Zm0,18a8,8,0,1,1,8-8A8.009,8.009,0,0,1,12,60Z" id="id_106" style="fill: rgb(33, 196, 57);"></path></g></svg>